<?xml version="1.0" encoding="UTF-8"?>
<svg id="Capa_2" data-name="Capa 2" xmlns="http://www.w3.org/2000/svg" viewBox="0 0 215.02 280.36">
  <defs>
    <style>
      .cls-1 {
        fill: #951b81;
      }
    </style>
  </defs>
  <g id="Capa_4" data-name="Capa 4">
    <path class="cls-1" d="M19.89,196.3h27.45l9.06,54.13s1.02,6.77,6.26,7.79,32.17,0,32.17,0v-61.91h24.51v62.37h27.59c4.16,0,8.09-2.26,9.85-6.03.12-.26.24-.53.35-.81,2.17-5.62,9.96-55.53,9.96-55.53h26.3l-14.94,66.13s-3.45,12.77-17.74,16.34c-12.51,3.13-85.87.78-103.96.15-4.7-.16-9.32-1.52-13.22-4.15-2.76-1.86-5.52-4.52-7.29-8.25-4.72-9.96-16.34-70.21-16.34-70.21Z"/>
    <path class="cls-1" d="M.36,161.45s-.81,13.17,23.36,16.32,32.6-8.77,32.6-8.77c0,0,6.06,7.13,22.6,8.09s28.53-12.06,28.53-12.06c0,0,12.19,12.28,29.72,12.02s22.3-8.09,22.3-8.09c0,0,7.91,9.49,27.49,9.34s26.79-11.22,27.74-16.85c3.85-22.79-26.45-71.64-98.11-76.57S-4.73,135.72.36,161.45Z"/>
    <path class="cls-1" d="M97.76,84.87l-.17-20.81c.51-1.38-20.94-6.21-14.98-28.94C88.57,12.4,107.59,0,107.59,0c0,0,20.08,14.91,24.68,35.21s-12.59,28.56-15.7,28.85l.03,20.81"/>
  </g>
</svg>